<?xml version="1.0" encoding="UTF-8"?>
<svg id="Capa_6" data-name="Capa 6" xmlns="http://www.w3.org/2000/svg" viewBox="0 0 455.52 259.24">
  <defs>
    <style>
      .cls-1 {
        font-family: SnellRoundhandLTStd-BdScr, 'Snell Roundhand LT Std';
        font-size: 34px;
      }

      .cls-1, .cls-2, .cls-3, .cls-4 {
        fill: #725748;
      }

      .cls-5 {
        fill: #f3ede3;
      }

      .cls-6 {
        letter-spacing: 0em;
      }

      .cls-2 {
        font-size: 14px;
      }

      .cls-2, .cls-3 {
        font-family: Montserrat-Regular, Montserrat;
      }

      .cls-3 {
        font-size: 13px;
      }

      .cls-7 {
        letter-spacing: 0em;
      }

      .cls-8 {
        fill: #f4e9be;
      }

      .cls-9 {
        letter-spacing: -.02em;
      }

      .cls-10 {
        letter-spacing: -.02em;
      }

      .cls-11 {
        letter-spacing: -.01em;
      }

      .cls-12 {
        letter-spacing: -.01em;
      }

      .cls-13 {
        letter-spacing: 0em;
      }

      .cls-14 {
        letter-spacing: .01em;
      }
    </style>
  </defs>
  <g>
    <g>
      <path class="cls-8" d="M64.25,249.55h327.32c27.37,0,49.56-22.19,49.56-49.56v-96.18c0-27.37-22.19-49.56-49.56-49.56H14.68v145.75c0,27.37,22.19,49.56,49.56,49.56Z"/>
      <path class="cls-8" d="M233.73,23.96H38.62c-13.22,0-23.94,10.72-23.94,23.94v12.41h242.99v-12.41c0-13.22-10.72-23.94-23.94-23.94Z"/>
    </g>
    <text class="cls-1" transform="translate(48.38 130.95)"><tspan x="0" y="0">diseño gráfico</tspan></text>
    <text class="cls-3" transform="translate(48.43 153.13)"><tspan x="0" y="0">IDENTI</tspan><tspan class="cls-13" x="45.32" y="0">D</tspan><tspan class="cls-7" x="55.92" y="0">ADES </tspan><tspan class="cls-11" x="96.08" y="0">V</tspan><tspan x="104.96" y="0">IS</tspan><tspan class="cls-9" x="116.88" y="0">U</tspan><tspan class="cls-7" x="126.98" y="0">ALES Y </tspan><tspan class="cls-13" x="175.72" y="0">P</tspan><tspan x="184.92" y="0">IEZAS QUE</tspan><tspan class="cls-11" x="0" y="15">C</tspan><tspan x="9.15" y="15">OMUNI</tspan><tspan class="cls-10" x="57.26" y="15">C</tspan><tspan x="66.38" y="15">AN </tspan><tspan class="cls-9" x="89.67" y="15">C</tspan><tspan class="cls-7" x="98.82" y="15">ON INTENCIÓN.</tspan></text>
    <text class="cls-2" transform="translate(31.19 50.36)"><tspan x="0" y="0">(IDENTI</tspan><tspan class="cls-12" x="53.41" y="0">D</tspan><tspan class="cls-6" x="64.83" y="0">A</tspan><tspan class="cls-14" x="74.87" y="0">D</tspan><tspan x="86.64" y="0">)</tspan></text>
  </g>
  <g>
    <path class="cls-4" d="M407.82,211.46l-12.63,15.35c-1.74,2.12-4.92,2.1-6.93,1.4-2.95-1.05-3.6-3.83-3.87-6.56l-7.81-3.53-10.45-5.21-2.17-8.44-3.14-16.31c-.13-.65.1-2.2.54-2.7.51-.58,2.07-.97,2.97-.96l24.5.15,12.51,16.52c2.12-.38,3.98-.43,5.38.33,2.84,1.53,3.79,6.7,1.08,9.99ZM385.03,187.81l-18.24.09,9.25,7.67c.74.62,3.06-.05,4.26-.05,1.52,0,2.92,2.35,3.17,3.61.31,1.54-.19,4.06-1.68,4.95-1.81,1.08-4.03.26-5.58-.67-1.5-.9-1.77-3.09-1.78-5.02l-9.9-8.05,3.56,15.31c.34,1.45.51,3.99,1.3,5.16l12.8,6.38c.86.43,3.2.83,4.09.51s1.7-1.8,2.52-2.75l6.74-7.69c.94-1.07,2.09-3.14,2.05-4.44-.03-1.09-1.21-3-1.99-4.02l-6.56-8.46c-1.1-1.42-2.12-2.56-4.03-2.55ZM377.47,200.97c.84.84,2.33,1.43,2.96.96.7-.53,1.42-2.14.87-2.68-.74-.74-2.09-1.06-2.83-.86-.68.19-1.46,2.12-1,2.59ZM402.9,203.95c-3.46,2.55-5.5,5.68-7.88,8.7l-6.34,8.04c-.91,1.15-1.12,2.88-.39,3.81.81,1.05,3.41,1.36,4.21.41l7.67-9.09c2.41-2.85,4.74-5.55,6.62-8.91.27-1.27-2.71-3.84-3.89-2.97Z"/>
    <path class="cls-4" d="M363.27,182.19c-2.46.6-2.45-3.05-6.24-2.86-1.2.06-2.5,1.66-2.64,3.03-.15,1.47.91,3.25,2.21,3.94l1.83.98c.49.26-.03,2.18-.65,2.27-2.67.39-6.52-2.42-6.8-5.43-.33-3.52,1.75-6.85,4.99-7.87,3.22-1.02,7.28,1.67,8.24,4.38.15.41-.55,1.47-.95,1.57Z"/>
    <path class="cls-5" d="M385.03,187.81c1.91,0,2.93,1.12,4.03,2.55l6.56,8.46c.79,1.01,1.96,2.92,1.99,4.02.04,1.3-1.12,3.36-2.05,4.44l-6.74,7.69c-.82.94-1.63,2.43-2.52,2.75s-3.24-.08-4.09-.51l-12.8-6.38c-.78-1.17-.96-3.71-1.3-5.16l-3.56-15.31,9.9,8.05c0,1.93.28,4.12,1.78,5.02,1.55.94,3.77,1.75,5.58.67,1.49-.89,1.99-3.41,1.68-4.95-.26-1.26-1.65-3.62-3.17-3.61-1.2,0-3.52.67-4.26.05l-9.25-7.67,18.24-.09Z"/>
    <path class="cls-5" d="M402.9,203.95c1.18-.87,4.16,1.7,3.89,2.97-1.88,3.36-4.21,6.06-6.62,8.91l-7.67,9.09c-.8.95-3.4.64-4.21-.41-.72-.94-.52-2.66.39-3.81l6.34-8.04c2.38-3.02,4.42-6.16,7.88-8.7Z"/>
    <path class="cls-5" d="M377.47,200.97c-.46-.46.32-2.4,1-2.59.74-.21,2.09.12,2.83.86.55.54-.17,2.15-.87,2.68-.63.48-2.13-.12-2.96-.96Z"/>
  </g>
</svg>