<?xml version="1.0" encoding="UTF-8"?>
<svg id="Capa_6" data-name="Capa 6" xmlns="http://www.w3.org/2000/svg" viewBox="0 0 434.13 259.24">
  <defs>
    <style>
      .cls-1 {
        font-size: 14px;
      }

      .cls-1, .cls-2, .cls-3 {
        fill: #f4e9be;
      }

      .cls-1, .cls-3 {
        font-family: Montserrat-Regular, Montserrat;
      }

      .cls-4 {
        fill: #f0eade;
      }

      .cls-5 {
        fill: #6d8ea3;
      }

      .cls-2 {
        font-family: SnellRoundhandLTStd-BdScr, 'Snell Roundhand LT Std';
        font-size: 34px;
      }

      .cls-6 {
        letter-spacing: 0em;
      }

      .cls-7 {
        letter-spacing: 0em;
      }

      .cls-8 {
        fill: #725748;
      }

      .cls-3 {
        font-size: 13px;
      }

      .cls-9 {
        letter-spacing: -.02em;
      }

      .cls-10 {
        letter-spacing: -.01em;
      }

      .cls-11 {
        letter-spacing: -.01em;
      }

      .cls-12 {
        letter-spacing: -.05em;
      }

      .cls-13 {
        letter-spacing: -.03em;
      }

      .cls-14 {
        letter-spacing: -.04em;
      }

      .cls-15 {
        letter-spacing: 0em;
      }

      .cls-16 {
        letter-spacing: 0em;
      }

      .cls-17 {
        letter-spacing: 0em;
      }

      .cls-18 {
        letter-spacing: 0em;
      }

      .cls-19 {
        letter-spacing: .01em;
      }
    </style>
  </defs>
  <g>
    <path class="cls-5" d="M53.4,238.23h327.32c27.37,0,49.56-22.19,49.56-49.56v-96.18c0-27.37-22.19-49.56-49.56-49.56H3.84v145.75c0,27.37,22.19,49.56,49.56,49.56Z"/>
    <path class="cls-5" d="M222.89,12.63H27.78c-13.22,0-23.94,10.72-23.94,23.94v12.41h242.99v-12.41c0-13.22-10.72-23.94-23.94-23.94Z"/>
  </g>
  <text class="cls-2" transform="translate(40.35 122.25)"><tspan x="0" y="0">creación de contenido</tspan></text>
  <text class="cls-3" transform="translate(39.98 139.17)"><tspan class="cls-11" x="0" y="0">C</tspan><tspan x="9.15" y="0">ONTENIDO </tspan><tspan class="cls-18" x="86.33" y="0">P</tspan><tspan x="95.54" y="0">ENSADO </tspan><tspan class="cls-12" x="157.17" y="0">P</tspan><tspan class="cls-7" x="165.92" y="0">ARA </tspan><tspan class="cls-11" x="197.36" y="0">C</tspan><tspan x="206.52" y="0">ON</tspan><tspan class="cls-15" x="227.99" y="0">E</tspan><tspan class="cls-16" x="236.64" y="0">C</tspan><tspan class="cls-13" x="245.87" y="0">T</tspan><tspan x="252.87" y="0">AR, DE</tspan><tspan class="cls-18" x="297.19" y="0">S</tspan><tspan class="cls-14" x="305.05" y="0">T</tspan><tspan class="cls-17" x="312.06" y="0">A</tspan><tspan class="cls-9" x="321.25" y="0">C</tspan><tspan x="330.37" y="0">AR</tspan><tspan x="0" y="15">Y GENERAR INTER</tspan><tspan class="cls-18" x="121.25" y="15">A</tspan><tspan class="cls-11" x="130.44" y="15">C</tspan><tspan class="cls-7" x="139.59" y="15">CIÓN.</tspan></text>
  <text class="cls-1" transform="translate(13.35 39.36)"><tspan x="0" y="0">(</tspan><tspan class="cls-10" x="4.61" y="0">C</tspan><tspan class="cls-6" x="14.46" y="0">ONTENID</tspan><tspan class="cls-19" x="82.16" y="0">O</tspan><tspan x="94.12" y="0">)</tspan></text>
  <g>
    <path class="cls-8" d="M371.71,207.7l1.36-7.14c.56-2.94.67-5.76,1.44-8.78l-3.98-1.33.74-4.79c.46-2.97.7-5.84,2.14-8.51l4.65-.25c1.63-1.92,3.69-2.78,6.15-3.19-.05-1.29.11-2.28.64-3.09.65-.99,3.33-.42,4.64-1.15.53-.3,1.12-2.15.64-2.42l-6.21-1.59c-2.24-.57-2.76-3.09-2.77-5.14-.01-2.41.58-4.38,2.74-5.85,3.2-2.17,12.54-1.54,16.19,1.09,2.41,3.66,2.5,6,.48,10.01-5.71,3.08-4.43,7.31-6.36,11.75,5.51,3.62.33,12.3-1.23,19.11-1.7,7.45-3.97,23.15-8.35,24.39-1.99.56-3.74.02-5.82-.33-2.28-.38-5.99-.22-7.53-2.24-1.66-3.12-.2-7.09.45-10.55ZM395.16,157.68c.68-.71.85-1.53.73-2.79-2.97-.61-5.97-1.49-8.92-.41,3.99.93,7.21-1.14,8.19,3.2ZM399.53,164.98c2.21-2.77,1.43-5.63-.39-7.68-1.5,2.73-1.24,5.52.39,7.68ZM386.75,159.51c-.44-1.66.04-3,1.06-3.96-.48-.35-.82-.43-1.37-.44-.65,1.63-1.09,3.61-.08,5.16.9.56,1.47-.41.39-.76ZM397.22,165.5c-.26-2.4-2.17-2.46-4.09-2.6l-9.01-.67c-.58,3.42,7.94,4.02,13.09,3.27ZM395.03,170.89c.51-1.48.64-2.75.54-3.97-2.78-.51-4.71.53-5.07,3.1,1.57.09,2.97.34,4.53.87ZM385.13,173.72c3.09-.42,5.95.15,8.58,1.93.58-.83.82-2.88-.18-3.34-3-1.37-9.25-1.41-8.41,1.41ZM391.64,175.83c-2.49-1.38-5.17-1.67-8.04-.74l8.04.74ZM392.75,179.52c.06-1.92-1.29-2.29-2.49-2.42l-8.13-.88c-1.13-.12-2.35.11-2.64,1.11,4.46,1.28,8.68,1.44,13.26,2.19ZM394.33,187.16c1.03-1.84,1.22-3.53.95-5.41-.94,1.82-1.55,3.39-.95,5.41ZM377.24,189.68c4.93,1.06,9.35,2.54,14.38,2.93l2.06-10.19-19.31-3.68c-1.16,3.36-1.49,6.55-2.16,9.86l5.02,1.08ZM386.81,202.29c1.1-.73,1.31-2.42,1.48-3.68l.55-4.24-13.45-2.79-1.34,9.05c3.89,1.13,12.07,2.12,12.77,1.65ZM383.77,218.64c6.6-3.06,7.94-23.62,8.12-23.52-.32-.19-1.07-.24-1.99-.45l-1.42,7.17c-.2,1-1.08,1.68-1.92,2.27-.29,5.01-1.82,9.46-2.79,14.53ZM376.68,216.57c-1.87,1.17-3.28.05-4.98.3,3.08,2.49,6.66,2.03,10.15,1.9,2-4.55,3.55-8.98,3.83-14.02-2.8-1.72-5.98-1.56-8.87-1.43.99,1.68.52,3.02-.57,4.03-.84.77-2.11,1.15-3.43-.19-.79,2.85-1.32,5.63-1.14,9.26,1.69-.31,3.23-.57,5.01.16ZM374.53,203.26c-1.22.03-1.57,1.04-1.37,1.8.27,1,1.02,1.64,1.81,1.45.98-.24,1.66-1.13,1.36-1.97-.23-.62-1.02-1.3-1.8-1.28Z"/>
    <path class="cls-4" d="M377.24,189.68l-5.02-1.08c.67-3.31,1-6.5,2.16-9.86l19.31,3.68-2.06,10.19c-5.04-.4-9.45-1.88-14.38-2.93ZM386.64,188.12c1.27.61,3.34,1.34,4.53-.59-1.53-.37-2.58-.44-3.3-1.63-.81.37-1.22.77-1.8,1.37-.49-.37-.49-1.3-.73-1.82l-3.12,1.28c.67-1,1.91-1.69,1.8-2.92-.09-.96-1.09-.99-1.58-.79-1.68.69-.87,2.93-2.21,3.3-.56.15-1.27.58-2.13-.33,1.45-1.02,2.23-2.64.81-4.15l-3.45,4.72c2.02,1.23,3.65,1.52,5.41.81,1.32,1.43,2.51.32,3.68-.53-.06.81.14,2.05.42,1.94l1.67-.65Z"/>
    <path class="cls-4" d="M376.68,216.57c-1.78-.73-3.32-.47-5.01-.16-.18-3.63.35-6.41,1.14-9.26,1.31,1.34,2.59.96,3.43.19,1.1-1.01,1.56-2.35.57-4.03,2.89-.12,6.07-.29,8.87,1.43-.28,5.04-1.82,9.47-3.83,14.02-3.49.14-7.08.6-10.15-1.9,1.71-.25,3.11.88,4.98-.3ZM380.34,209.06c1.52.95,2.95.09,3.3-1.09s-.16-2.7-1.65-3.14c-1.04-.3-1.95.83-2.24,1.55-.33.84-.43,2.04.59,2.68Z"/>
    <path class="cls-4" d="M386.81,202.29c-.7.47-8.87-.52-12.77-1.65l1.34-9.05,13.45,2.79-.55,4.24c-.16,1.25-.38,2.94-1.48,3.68ZM378.66,198.11c.27.73,2.47,1.22,3.2.96,1.31-.46,2.15-2.53,1.77-3.73-.64.79-.91,1.41-1.68,1.75-.06-.75-.24-1.52-.69-1.76-1.12-.02-3.19,1.2-2.61,2.78Z"/>
    <path class="cls-4" d="M383.77,218.64c.97-5.07,2.5-9.53,2.79-14.53.85-.59,1.72-1.27,1.92-2.27l1.42-7.17c.91.21,1.67.26,1.99.45-.17-.1-1.51,20.46-8.12,23.52Z"/>
    <path class="cls-4" d="M397.22,165.5c-5.15.75-13.68.15-13.09-3.27l9.01.67c1.91.14,3.82.2,4.09,2.6Z"/>
    <path class="cls-4" d="M392.75,179.52c-4.58-.75-8.79-.91-13.26-2.19.28-1,1.5-1.23,2.64-1.11l8.13.88c1.2.13,2.55.5,2.49,2.42Z"/>
    <path class="cls-4" d="M385.13,173.72c-.85-2.82,5.41-2.78,8.41-1.41,1,.46.76,2.51.18,3.34-2.63-1.79-5.49-2.35-8.58-1.93Z"/>
    <path class="cls-4" d="M395.03,170.89c-1.56-.52-2.95-.78-4.53-.87.36-2.57,2.28-3.61,5.07-3.1.1,1.22-.04,2.48-.54,3.97Z"/>
    <path class="cls-4" d="M399.53,164.98c-1.63-2.16-1.89-4.95-.39-7.68,1.82,2.05,2.59,4.91.39,7.68Z"/>
    <path class="cls-4" d="M395.16,157.68c-.98-4.33-4.21-2.27-8.19-3.2,2.96-1.08,5.96-.2,8.92.41.13,1.25-.05,2.08-.73,2.79Z"/>
    <path class="cls-4" d="M374.53,203.26c.78-.02,1.57.65,1.8,1.28.3.84-.37,1.73-1.36,1.97-.79.19-1.54-.45-1.81-1.45-.2-.76.15-1.77,1.37-1.8Z"/>
    <path class="cls-4" d="M391.64,175.83l-8.04-.74c2.87-.93,5.55-.64,8.04.74Z"/>
    <path class="cls-4" d="M386.75,159.51c1.08.35.51,1.32-.39.76-1.01-1.55-.57-3.53.08-5.16.55,0,.89.09,1.37.44-1.02.96-1.51,2.3-1.06,3.96Z"/>
    <path class="cls-4" d="M394.33,187.16c-.6-2.02,0-3.59.95-5.41.26,1.87.08,3.57-.95,5.41Z"/>
    <path class="cls-4" d="M386.64,188.12l-1.67.65c-.29.11-.48-1.12-.42-1.94-1.17.85-2.36,1.97-3.68.53-1.76.71-3.39.42-5.41-.81l3.45-4.72c1.41,1.51.64,3.13-.81,4.15.86.91,1.57.48,2.13.33,1.34-.36.52-2.61,2.21-3.3.49-.2,1.49-.17,1.58.79.11,1.23-1.13,1.92-1.8,2.92l3.12-1.28c.24.52.25,1.45.73,1.82.58-.61,1-1,1.8-1.37.72,1.19,1.77,1.26,3.3,1.63-1.2,1.93-3.26,1.2-4.53.59Z"/>
    <path class="cls-8" d="M380.34,209.06c-1.02-.64-.92-1.84-.59-2.68.28-.72,1.2-1.85,2.24-1.55,1.49.44,2,1.96,1.65,3.14s-1.79,2.04-3.3,1.09Z"/>
    <rect class="cls-4" x="377.04" y="194.96" width="9.86" height="5.41" transform="translate(71 -99.44) rotate(16.33)"/>
    <path class="cls-8" d="M377.31,197.29c-.97-.54-.95-1.47-.68-2.11.23-.54,1.03-1.38,2-1.09,1.4.41,1.95,1.62,1.69,2.51s-1.56,1.49-3.01.68Z"/>
    <path class="cls-8" d="M383.32,198.21c-.97-.54-.95-1.47-.68-2.11.23-.54,1.03-1.38,2-1.09,1.4.41,1.95,1.62,1.69,2.51s-1.56,1.49-3.01.68Z"/>
    <ellipse class="cls-4" cx="374.21" cy="216.11" rx="2.56" ry="1.46" transform="translate(-18.03 34.76) rotate(-5.19)"/>
  </g>
</svg>