<?xml version="1.0" encoding="UTF-8"?>
<svg id="Capa_6" data-name="Capa 6" xmlns="http://www.w3.org/2000/svg" viewBox="0 0 452.89 259.24">
  <defs>
    <style>
      .cls-1 {
        font-family: SnellRoundhandLTStd-BdScr, 'Snell Roundhand LT Std';
        font-size: 34px;
      }

      .cls-1, .cls-2, .cls-3, .cls-4 {
        fill: #f3ede3;
      }

      .cls-5 {
        fill: #f0eade;
      }

      .cls-2 {
        font-family: Montserrat-Medium, Montserrat;
        font-size: 13px;
        font-weight: 500;
      }

      .cls-6 {
        fill: #550d0d;
      }

      .cls-7 {
        fill: #6d8ea3;
      }

      .cls-8 {
        letter-spacing: 0em;
      }

      .cls-9 {
        fill: #725748;
      }

      .cls-10 {
        letter-spacing: -.01em;
      }

      .cls-4 {
        font-family: Montserrat-Regular, Montserrat;
        font-size: 14px;
      }

      .cls-11 {
        letter-spacing: -.04em;
      }

      .cls-12 {
        letter-spacing: -.03em;
      }

      .cls-13 {
        letter-spacing: -.04em;
      }

      .cls-14 {
        letter-spacing: -.04em;
      }

      .cls-15 {
        letter-spacing: 0em;
      }

      .cls-16 {
        letter-spacing: 0em;
      }

      .cls-17 {
        letter-spacing: 0em;
      }

      .cls-18 {
        letter-spacing: 0em;
      }

      .cls-19 {
        letter-spacing: .03em;
      }

      .cls-20 {
        letter-spacing: 0em;
      }
    </style>
  </defs>
  <g>
    <g>
      <path class="cls-9" d="M60.32,244.21h327.32c27.37,0,49.56-22.19,49.56-49.56v-96.18c0-27.37-22.19-49.56-49.56-49.56H10.76v145.75c0,27.37,22.19,49.56,49.56,49.56Z"/>
      <path class="cls-9" d="M229.81,18.61H34.7c-13.22,0-23.94,10.72-23.94,23.94v12.41h242.99v-12.41c0-13.22-10.72-23.94-23.94-23.94Z"/>
    </g>
    <g>
      <text class="cls-1" transform="translate(49.8 131.03)"><tspan x="0" y="0">Social Media</tspan></text>
      <text class="cls-2" transform="translate(46.95 151.9)"><tspan x="0" y="0">E</tspan><tspan class="cls-16" x="8.71" y="0">S</tspan><tspan x="16.65" y="0">TR</tspan><tspan class="cls-12" x="33.73" y="0">A</tspan><tspan x="42.8" y="0">T</tspan><tspan class="cls-18" x="50.43" y="0">E</tspan><tspan x="59.1" y="0">GI</tspan><tspan class="cls-19" x="73.16" y="0">A</tspan><tspan x="83.11" y="0">, ORGANIZ</tspan><tspan class="cls-16" x="152.61" y="0">A</tspan><tspan x="161.99" y="0">CIÓN Y GE</tspan><tspan class="cls-16" x="231.05" y="0">S</tspan><tspan x="238.99" y="0">TIÓN</tspan><tspan class="cls-11" x="0" y="15">P</tspan><tspan x="8.8" y="15">ARA UNA </tspan><tspan class="cls-16" x="74.63" y="15">P</tspan><tspan x="83.89" y="15">RESENCIA DIGI</tspan><tspan class="cls-14" x="184.66" y="15">T</tspan><tspan x="191.84" y="15">AL </tspan><tspan class="cls-10" x="212.57" y="15">C</tspan><tspan x="221.78" y="15">ONSI</tspan><tspan class="cls-16" x="255.36" y="15">S</tspan><tspan x="263.3" y="15">TENT</tspan><tspan class="cls-20" x="297.83" y="15">E</tspan><tspan x="306.67" y="15">.</tspan></text>
    </g>
    <text class="cls-4" transform="translate(23.23 45.53)"><tspan x="0" y="0">(E</tspan><tspan class="cls-17" x="13.97" y="0">S</tspan><tspan x="22.44" y="0">TR</tspan><tspan class="cls-13" x="40.6" y="0">A</tspan><tspan class="cls-8" x="50.15" y="0">T</tspan><tspan class="cls-15" x="58.18" y="0">E</tspan><tspan class="cls-8" x="67.49" y="0">GIA)</tspan></text>
  </g>
  <g>
    <path class="cls-7" d="M415.37,181.73l.69-7.13c-5.13-.54-9.87-1.84-14.88-2.72-4.03-.7-7.79-1.43-11.73-2.51l-9.99-1.92-6.58-1.61-4.03-.89c-.63-.14-2.14-.1-2.44.58-.51,5.93-1.56,11.54-2.41,17.4l-1.16,8.04-1.03,7.35v.07s-.62.13-.62.13l-9.32,1.99-9.29,2.15c-.62.14-1.69.55-1.96,1.03-.37.67-.18,1.46-.13,2.24l6.74,1.74,3.38.86,3.21.84,10.3,3.45,14.08,4.8,7.38,2.54,3.12.98c1.1.35,1.54.24,2.54-.08,2.11-.66,3.98-1.54,6.01-2.44,3.86-1.71,7.74-3.2,11.2-5.72.91-.67,1.13-2.19,1.39-3.22l1.26-5.09,3.31-16.17,1-6.68ZM401.46,214.74l-7.05,3.27c-2.33,1.17-5.04,1.3-7.28-.12l-11.58-3.21-5.41-1.56-3.81-1.2-8.68-3.4-2.32-.71-6.53-1.87-2.91-.92c-1.08-.34-2.37-.09-3.45-1.05l5.74-1.4,4.38-1.17,9.6-2.13.43.14,7.97,2.01,9.96,2.36,5.3,1.45,7.3,1.86,4.9,1.58,9.34,2.82c-1.8,1.69-3.86,2.31-5.89,3.25ZM410.84,190.31l-1.08,5.57-1.22,4.61-1.71,7.79-10.23-3.3c-3.8-1.23-7.48-1.93-11.4-2.81l-13.57-3.97c-1.95-.57-3.78-1.13-5.8-1.29l.71-4.18c.01-2.33.3-4.49.57-6.81l.44-3.78.87-6.44.33-3.5c.11-1.16-.05-2.33.56-3.37,5.14,1.66,10.14,2.86,15.35,3.68l4.84.76,7.48,1.65,6.26,1.53,5.34,1.05,3.88.76c.3,1.61-.44,3.02-.51,4.54-.12,2.61-.61,4.96-1.1,7.52Z"/>
    <path class="cls-3" d="M408.54,200.48l-1.71,7.79-10.23-3.3c-3.8-1.23-7.48-1.93-11.4-2.81l-13.57-3.97c-1.95-.57-3.78-1.13-5.8-1.29l.71-4.18c.01-2.33.29-4.48.57-6.81l.44-3.79.87-6.43.33-3.5c.11-1.16-.05-2.33.56-3.37,5.14,1.66,10.14,2.86,15.35,3.68l4.83.76,7.48,1.65,6.26,1.53,5.34,1.05,3.88.76c.3,1.61-.44,3.02-.51,4.54-.12,2.61-.6,4.96-1.1,7.52l-1.08,5.57-1.22,4.61Z"/>
    <path class="cls-5" d="M398.01,208.68l-4.9-1.58-7.3-1.86-5.3-1.45-9.96-2.36-7.97-2.01c.7.47,1.4.5,1.89,1.12h1.57c.59.8,1.83.57,2.56.89,2.2.99,4.17,1.51,6.45,2.07l4.59,1.13c1.2.3,2.62.18,3.52,1.28l-6.53-1.35-6.02-1.5c-2.46-.61-4.6-1.46-7.13-1.97-.5-.1-.89-1-2-.62.54-.56.71-.63.67-1.19l-9.6,2.13-4.38,1.17-5.74,1.4c1.08.96,2.37.71,3.45,1.05l2.91.92,6.53,1.87,2.32.71,8.68,3.4,3.81,1.2,5.41,1.56,11.58,3.21c2.24,1.42,4.95,1.29,7.28.12l7.05-3.27c2.03-.94,4.08-1.55,5.89-3.25l-9.34-2.82ZM362.47,202.2l.72-.67,9.42,2.53,12.33,3.26c.55.14,1.17-.08,1.26.76l-10.33-2.5-5.23-1.48-5.54-1.56c-.28-.05-.65.4-.82.56-1.52-.19-2.8-.32-4.08-1.19.95-.38,1.58.2,2.29.29ZM357.97,201.42c-.12-.13-.07-.57,0-.68.09-.15.32-.38.89-.22.24.56.59.97,1.3,1.3-.77.42-1.63.18-2.18-.4ZM376.34,209.76c-3.89,1.86-3.98,3.44-9.24,1.29l-6.44-2.63c-.59-.24-1.08-.44-1.81-.27.63-1.63,2.04-1.97,3.32-2.6,1.28-.62,2.48-1.03,3.98-.58l7.93,2.43,2.47,1.04c.35.15.54.49.47.75-.07.3-.34.41-.69.58ZM376.62,207.38l-4.5-1.48c-1.18-.38-2.14-.67-3.33-1.12l-3.01-1.15c1.14-.26,2.23.14,3.37.51l10.53,3.49c1.29.43,2.7.35,3.85,1.56l-6.91-1.81ZM397.35,214.37c-.69.35-1.64.09-2.44-.18l-3.57-1.21-2.72-1.35.1-.4,5.36,1.97.27.1c.23.08.35.36,1.01.26-.11-.27-.35-.4-.65-.43-.14-.02-.22-.08-.25-.1-2.1-1.26-4.43-2.04-6.82-2.48.19.41.17.7.12.68-.46-.09-.75-.17-.83-.3-.08-.12.03-.46.29-.73-.83-.24-1.92-.06-2.55-1.07,1.71-.06,2.95.66,4.46,1.05,2.51.65,5.01,1.55,7.2,3.01-.05.42-.49.43-1.05.42.71.86,2.13-.37,2.32.2.04.11-.08.47-.26.56ZM399.72,212.56c-2.19-.23-3.89-1.04-5.9-1.87l-4.32-1.8c.57-.59,1.19.12,1.68.25,2.06.58,3.86,1.28,5.74,2.22,1.39.7,4.21,1.02,4.93.28l-9.11-2.95-6.35-1.84.07-.37,5.24,1.18,9.62,3.13,1.56,1.11c-.94,1.26-2.03.79-3.15.67Z"/>
    <path class="cls-6" d="M376.34,209.76c-3.89,1.86-3.98,3.44-9.24,1.29l-6.44-2.63c-.59-.24-1.08-.44-1.81-.27.63-1.63,2.04-1.97,3.32-2.6s2.48-1.03,3.97-.57l7.93,2.43,2.47,1.04c.35.15.54.49.47.75-.07.3-.34.41-.69.58ZM375.43,209.02l-4.42-1.58c-2.16-.77-4.44-1.95-6.87-1.67l-3.76,1.72,8.79,3.47c2.35.92,4.17-.31,6.25-1.94Z"/>
    <path class="cls-6" d="M389.5,208.89c.57-.59,1.19.12,1.68.25,2.06.58,3.86,1.28,5.74,2.22,1.39.7,4.21,1.02,4.93.27l-9.11-2.95-6.35-1.84.07-.37,5.24,1.18,9.62,3.13,1.56,1.11c-.94,1.26-2.03.79-3.15.67-2.19-.23-3.89-1.04-5.9-1.87l-4.32-1.8Z"/>
    <path class="cls-6" d="M370.63,204.09l-5.54-1.56c-.28-.05-.65.4-.83.56-1.52-.19-2.8-.32-4.08-1.19.95-.38,1.58.2,2.29.29l.72-.67,9.42,2.53,12.33,3.26c.55.14,1.17-.08,1.26.76l-10.33-2.5-5.23-1.48Z"/>
    <path class="cls-6" d="M394.46,213.03c-2.1-1.26-4.43-2.04-6.82-2.49.19.41.17.7.12.68-.46-.09-.75-.17-.83-.3s.03-.46.29-.73c-.83-.24-1.92-.07-2.55-1.07,1.71-.06,2.95.66,4.46,1.06,2.51.65,5.01,1.55,7.2,3.01-.05.42-.49.43-1.05.42.71.86,2.13-.37,2.32.2.04.11-.08.47-.26.56-.68.35-1.64.09-2.44-.18l-3.57-1.21-2.72-1.34.1-.4,5.36,1.97.38-.18ZM394.71,213.13l-.36.17c.23.08.35.36,1.01.26-.11-.27-.35-.4-.65-.43Z"/>
    <path class="cls-6" d="M383.53,209.2l-6.91-1.81-4.5-1.48c-1.17-.38-2.14-.67-3.33-1.12l-3.01-1.15c1.14-.25,2.23.14,3.37.51l10.53,3.49c1.29.43,2.7.35,3.85,1.56Z"/>
    <path class="cls-6" d="M358.85,200.51c.24.56.59.97,1.3,1.3-.77.42-1.63.18-2.18-.4-.12-.13-.07-.57,0-.68.09-.15.32-.38.89-.22Z"/>
    <path class="cls-5" d="M375.43,209.02c-2.08,1.63-3.91,2.86-6.25,1.94l-8.79-3.47,3.76-1.72c2.43-.27,4.7.9,6.87,1.67l4.42,1.58Z"/>
    <path class="cls-6" d="M383.15,205.91l-6.53-1.35-6.02-1.5c-2.46-.61-4.6-1.46-7.13-1.97-.5-.1-.89-1-2-.62.54-.56.71-.63.67-1.19l.43.14c.7.47,1.4.5,1.89,1.12h1.57c.59.8,1.83.57,2.56.89,2.2.99,4.17,1.51,6.45,2.07l4.59,1.13c1.2.3,2.62.18,3.52,1.28Z"/>
  </g>
</svg>