<?xml version="1.0" encoding="UTF-8"?>
<svg id="Capa_6" xmlns="http://www.w3.org/2000/svg" version="1.1" viewBox="0 0 426.4 225.6">
  <!-- Generator: Adobe Illustrator 30.6.0, SVG Export Plug-In . SVG Version: 2.1.4 Build 109)  -->
  <defs>
    <style>
      .st0, .st1, .st2, .st3 {
        font-size: 13px;
      }

      .st0, .st1, .st2, .st3, .st4, .st5, .st6, .st7, .st8 {
        fill: #550d0d;
      }

      .st0, .st1, .st2, .st3, .st9, .st5, .st6, .st7, .st8 {
        isolation: isolate;
      }

      .st0, .st1, .st2, .st3, .st5, .st6, .st7 {
        font-family: Montserrat-Regular, Montserrat;
      }

      .st1 {
        letter-spacing: 0em;
      }

      .st10 {
        fill: #9ec3d6;
      }

      .st2 {
        letter-spacing: 0em;
      }

      .st3 {
        letter-spacing: 0em;
      }

      .st5 {
        letter-spacing: 0em;
      }

      .st5, .st6, .st7 {
        font-size: 14px;
      }

      .st6 {
        letter-spacing: 0em;
      }

      .st8 {
        font-family: SnellRoundhandLTStd-BdScr, 'Snell Roundhand LT Std';
        font-size: 34px;
      }

      .st11 {
        fill: #725748;
      }

      .st12 {
        fill: #f4e9be;
      }
    </style>
  </defs>
  <path class="st10" d="M376.9,30.3h-133.9v-6.3c0-13.2-10.7-23.9-23.9-23.9H23.9C10.7,0,0,10.7,0,23.9v152.1c0,27.4,22.2,49.6,49.6,49.6h0s327.3,0,327.3,0c27.4,0,49.6-22.2,49.6-49.6v-96.2c0-27.4-22.2-49.6-49.6-49.6Z"/>
  <g class="st9">
    <text class="st8" transform="translate(37.1 109.4)"><tspan x="0" y="0">tiendas online</tspan></text>
  </g>
  <g class="st9">
    <text class="st0" transform="translate(36.1 126.8)"><tspan x="0" y="0">TIEN</tspan></text>
    <text class="st0" transform="translate(66.7 126.8)"><tspan x="0" y="0">D</tspan></text>
    <text class="st0" transform="translate(77.3 126.8)"><tspan x="0" y="0">AS FUNCIONALES Y ALINEA</tspan></text>
    <text class="st0" transform="translate(260.1 126.8)"><tspan x="0" y="0">D</tspan></text>
    <text class="st0" transform="translate(270.7 126.8)"><tspan x="0" y="0">AS </tspan></text>
    <text class="st1" transform="translate(291.4 126.8)"><tspan x="0" y="0">C</tspan></text>
    <text class="st0" transform="translate(300.6 126.8)"><tspan x="0" y="0">ON </tspan></text>
    <text class="st0" transform="translate(325.5 126.8)"><tspan x="0" y="0">L</tspan></text>
    <text class="st0" transform="translate(333.2 126.8)"><tspan x="0" y="0">A</tspan></text>
    <text class="st0" transform="translate(36.1 141.8)"><tspan x="0" y="0">IDENTI</tspan></text>
    <text class="st0" transform="translate(81.4 141.8)"><tspan x="0" y="0">D</tspan></text>
    <text class="st0" transform="translate(92 141.8)"><tspan x="0" y="0">AD DE </tspan></text>
    <text class="st3" transform="translate(138.3 141.8)"><tspan x="0" y="0">T</tspan></text>
    <text class="st0" transform="translate(145.6 141.8)"><tspan x="0" y="0">U MAR</tspan></text>
    <text class="st1" transform="translate(190.4 141.8)"><tspan x="0" y="0">C</tspan></text>
    <text class="st2" transform="translate(199.5 141.8)"><tspan x="0" y="0">A</tspan></text>
    <text class="st0" transform="translate(209.3 141.8)"><tspan x="0" y="0">.</tspan></text>
  </g>
  <g class="st9">
    <text class="st7" transform="translate(11 27.3)"><tspan x="0" y="0">(</tspan></text>
    <text class="st5" transform="translate(15.6 27.3)"><tspan x="0" y="0">E</tspan></text>
    <text class="st7" transform="translate(24.7 27.3)"><tspan x="0" y="0">-</tspan></text>
    <text class="st6" transform="translate(30.1 27.3)"><tspan x="0" y="0">C</tspan></text>
    <text class="st7" transform="translate(40 27.3)"><tspan x="0" y="0">OMMERCE)</tspan></text>
  </g>
  <g>
    <path class="st11" d="M375.6,209.2l-9.8-1.8-16.4-2.8-1-2.2c3-4.3,7-6,12.3-6.1l.4-2.6-17.9-3.6c-2.1-.4-3.2-3-3-4.9,1.2-8.9,2.7-17.2,4.6-25.9.6-2.6,2.9-4,5.6-3.5l13.2,2.5c10,1.1,19.4,2.7,29.1,5.1,1.8.4,3.8,2.8,3.5,4.6l-2.8,14.3-2.2,11.9c-.5,2.7-3.4,4.4-6.1,3.9l-16.1-3.1-.9,3.8,4.6,2.4c3.2,1.6,5.4,6,4.4,7.8-.2.4-1.3.8-1.7.7h0ZM374,191.6c4.8.7,8.9,1.5,13.8,3,1.8-6.3,2.5-12.7,3.6-19.1l1.4-8.9-21.2-4.2-23.1-3.6-2.4,12-2.6,15.8,10.8,2.3,19.8,2.7h0ZM372.7,204.6l-5.4-3.9c-4-1.8-9.2-2.6-13.4.7,6.3,1.9,12.3,3.6,18.8,3.1Z"/>
    <path class="st4" d="M374,191.6l-19.8-2.7-10.8-2.3,2.6-15.8,2.4-12,23.1,3.6,21.2,4.2-1.4,8.9c-1,6.4-1.8,12.8-3.6,19.1-4.9-1.6-9.1-2.4-13.8-3h0ZM374.4,182.8l-3.4-5,3.6-3.1-13.5-6.8,1.5,15.7,4-2.6,3.8,4.4,4-2.7h0Z"/>
    <path class="st4" d="M372.7,204.6c-6.5.5-12.5-1.3-18.8-3.1,4.2-3.3,9.4-2.5,13.4-.7l5.4,3.9Z"/>
    <polygon class="st12" points="374.4 182.8 370.5 185.5 366.6 181.1 362.6 183.7 361.2 168 374.6 174.8 371 177.8 374.4 182.8"/>
  </g>
</svg>